<?xml version="1.0" encoding="UTF-8"?><svg id="Lag_2" xmlns="http://www.w3.org/2000/svg" viewBox="0 0 362 362"><defs><style>.cls-1{fill:#f2f2f2;}.cls-2{fill:#34430f;}</style></defs><g id="Lag_1-2"><circle class="cls-1" cx="181" cy="181" r="181"/><path class="cls-2" d="M336.71,174.23c-1.03-.37-2.06-.72-3.06-1.05-2.72-.89-4.43-3.6-4-6.43,.85-5.59,1.17-13.76,.29-26.02-.58-8.13-1.52-15.63-2.15-20.18,4.29-8.92-.69-18.08-13.41-22.37l-106.8-36.06c-15.14-5.11-36.94-1.04-48.61,9.06L39.33,174.71c-3.37,2.91-5.66,6.04-6.93,9.16-4.4,3.39-7.43,9.68-8.74,18.34-2.1,13.98,.73,32.01,11.93,38.55,6.95,4.06,38.91,18.36,69.78,31.22,28.18,11.74,80.25,38.02,94.84,27.81l131.38-113.86c4.56-3.97,10.8-9.64,5.11-11.68ZM42.95,228.14c-2.26-1.32-4.88-6.67-5.27-15.28-.19-4.19,.21-7.89,.86-10.8,1.59,1.09,3.43,2.05,5.53,2.87l106.77,41.39c16.07,6.23,39.55,1.99,52-9.4l111.91-102.41c.23,2.35,.45,4.83,.64,7.37,1.58,22.18-1.21,27.09-1.54,27.57-.97,1.45-4.8,5.54-10.69,11.43l-111.31,96.87c-6.12,4.11-9.73,5.92-11.36,6.24-15.5-1.56-123.64-47.72-137.53-55.84Z"/></g></svg>