<?xml version="1.0" encoding="UTF-8"?><svg id="Lag_2" xmlns="http://www.w3.org/2000/svg" viewBox="0 0 362 362"><defs><style>.cls-1{fill:#f2f2f2;}.cls-2{fill:#34430f;}</style></defs><g id="Lag_1-2"><circle class="cls-1" cx="181" cy="181" r="181"/><path class="cls-2" d="M171.05,307.91v-29.91c-17.18-.3-34.94-5.63-45.31-13.03l7.11-19.84c10.66,7.11,26.06,12.73,42.65,12.73,21.02,0,35.24-12.14,35.24-29.02s-11.55-26.36-33.46-35.24c-30.2-11.84-48.86-25.47-48.86-51.23s17.47-43.23,44.72-47.68v-29.91h18.36v28.73c17.77,.59,29.91,5.33,38.5,10.36l-7.4,19.55c-6.22-3.55-18.36-10.07-37.31-10.07-22.8,0-31.39,13.62-31.39,25.47,0,15.4,10.96,23.1,36.72,33.76,30.5,12.44,45.9,27.84,45.9,54.19,0,23.39-16.29,45.31-46.79,50.34v30.8h-18.65Z"/></g></svg>