<?xml version="1.0" encoding="UTF-8"?><svg id="Lag_2" xmlns="http://www.w3.org/2000/svg" viewBox="0 0 362 362"><defs><style>.cls-1{fill:#f2f2f2;}.cls-2{fill:#34430f;}</style></defs><g id="Lag_1-2"><circle class="cls-1" cx="181" cy="181" r="181"/><path class="cls-2" d="M287.82,110.23c-15.67-26.09-135.87-62.64-135.87-62.64-8.57-2.61-17.72,2.27-20.32,10.85l-2.75,9.04c-2.5,8.23,1.89,16.98,9.83,19.98,.38,.14,1.01,.32,1.4,.41,17.43,3.94,33.86,5.48,50.08,7.14l-63.62,200.07c-2.04,6.41,.7,13.04,6.11,14.69l17.5,5.32c5.4,1.64,11.36-2.35,13.21-8.81l58.53-203.97s0-.02,0-.03c.48-1.7,2.13-2.8,3.86-2.46,17.35,3.36,35.11,8.9,54.23,19.62,3.23,1.81,7.3-.61,8.38-4.14h0c.51-1.69,.34-3.54-.57-5.06Z"/></g></svg>