<?xml version="1.0" encoding="UTF-8"?><svg id="Lag_2" xmlns="http://www.w3.org/2000/svg" viewBox="0 0 362 362"><defs><style>.cls-1{fill:#f2f2f2;}.cls-2{fill:#34430f;}</style></defs><g id="Lag_1-2"><circle class="cls-1" cx="181" cy="181" r="181"/><g><path class="cls-2" d="M196.64,153.71c-22.22-69.49-122.21-99.61-122.21-99.61,0,0-63.96,82.55-41.75,152.04,17.15,53.63,80.6,83.81,108.68,94.79l-24.06-112.74,45.81,105.79c16.5-25.24,50.68-86.63,33.53-140.26Z"/><path class="cls-2" d="M331.82,172.42s-73.5-14.32-110.83,22.33c-28.81,28.28-27.66,78.66-25.63,100.18l64.43-51.79-52.96,63.47c21.48,2.42,71.83,4.5,100.63-23.79,37.33-36.65,24.35-110.4,24.35-110.4Z"/></g></g></svg>