<?xml version="1.0" encoding="UTF-8"?><svg id="Lag_2" xmlns="http://www.w3.org/2000/svg" viewBox="0 0 362 362"><defs><style>.cls-1{fill:#f2f2f2;}.cls-2{fill:#34430f;}</style></defs><g id="Lag_1-2"><circle class="cls-1" cx="181" cy="181" r="181"/><path class="cls-2" d="M295.86,231.81V75.16c.72-2.46,.89-5.13,.4-7.82-1.7-9.21-10.55-15.29-19.75-13.59l-124.77,23.06c-7.19,1.33-12.48,7.02-13.64,13.83-.58,1.28-.91,2.7-.91,4.19V241.09c-10.41-3.05-23.52-2.57-36.56,2.18-24.81,9.03-39.94,30.04-33.79,46.94,6.15,16.89,31.25,23.27,56.06,14.24,23.78-8.66,38.65-28.32,34.43-44.81,.14-.66,.21-1.35,.21-2.05V110.19c.12-.02,.25-.03,.37-.05l117.62-21.73v126.91c-10.41-3.05-23.52-2.57-36.56,2.18-24.81,9.03-39.94,30.04-33.79,46.94,6.15,16.89,31.25,23.27,56.06,14.24,23.78-8.66,38.65-28.32,34.43-44.81,.14-.66,.21-1.35,.21-2.05Z"/></g></svg>