<?xml version="1.0" encoding="UTF-8"?><svg id="Lag_2" xmlns="http://www.w3.org/2000/svg" viewBox="0 0 362 362.25"><defs><style>.cls-1{fill:#f2f2f2;}.cls-2{fill:#34430f;}</style></defs><g id="Lag_1-2"><circle class="cls-1" cx="181" cy="181" r="181"/><path class="cls-2" d="M181,362.25c61.32,0,115.5-30.49,148.24-77.14l20.58-38.48c7.86-20.28,12.18-42.33,12.18-65.38,0-20.74-3.5-40.67-9.92-59.23l-71.33-25.3c-9.69-3.44-20.18,2.56-22.12,12.66l-32.72,169.7c-1.07,5.57-9.1,5.41-9.95-.2l-18.85-124.46s0-.02,0-.04c-.03-.52,.18-1.04,.56-1.4,1.45-1.4,2.55-2.71,3.17-4.83l3.43-11.77c1.88-6.45-.61-13.37-6.16-17.15l-9.02-6.14c-5.55-3.78-12.9-3.56-18.21,.56l-8.63,6.68c-5.31,4.11-7.37,11.17-5.1,17.49l4.14,11.54c.46,1.28,1.1,2.77,1.88,3.62,.54,.58,.81,.65,.7,1.44,0,0,0,0,0,0l-18.39,121.43c-.85,5.61-8.87,5.77-9.95,.2L103.39,109.38c-1.95-10.1-12.43-16.1-22.12-12.66L9.92,122.02C3.5,140.58,0,160.51,0,181.25c0,23.05,4.32,45.08,12.17,65.36l20.61,38.53c32.74,46.63,86.92,77.11,148.22,77.11Z"/></g></svg>