<svg width="1725" height="601" viewBox="0 0 1725 601" fill="none" xmlns="http://www.w3.org/2000/svg">
<path d="M72.9395 67.5051C840.625 91.7824 1158.76 -0.000693017 1601.36 3.92454e-09C1652 7.93064e-05 1692.68 9.13623 1725 25.3176C1725 697.716 1725 594.758 1725 594.758H0C0 594.758 0 697.716 0 67.319C22.6968 66.6394 46.9821 66.6842 72.9395 67.5051Z" fill="#D6DEC1"/>
<path d="M92.2597 176.685C1063.19 275.983 1184.34 193.476 1658.4 218.18C1683.11 219.468 1705.24 221.923 1725 225.421C1725 590 1725 590 1725 590H0C0 590 1.94916e-06 590 0 169C28.5465 170.766 59.2606 173.31 92.2597 176.685Z" fill="#ADB88F"/>
<path d="M124.286 436.072C325.062 453.368 549.938 448.813 776.173 437.743C870.584 433.123 965.232 427.369 1058.46 421.595C1272.33 408.35 1478.75 395 1657.77 395C1682.96 395 1705.28 395.988 1725 397.853V595H0L1.95437e-06 434.257C31.2291 431.253 72.0301 431.57 124.286 436.072Z" fill="#889466"/>
</svg>
