<svg width="428" height="695" viewBox="0 0 428 695" fill="none" xmlns="http://www.w3.org/2000/svg">
<path d="M34 60.5C248.74 84.7872 256.195 0.499307 380 0.5C392.529 0.50007 428.5 7.49981 428.5 7.49981V695H0.499939L0.499973 62.8659C10.4702 59.9725 21.6019 59.0978 34 60.5Z" fill="#d6ddc2"/>
<path d="M275.5 228C209.5 243.5 184.375 167.272 51.8036 192C35.4298 195.054 -0.775818 219 -0.775818 219L-0.775787 695H427.079V219C416.057 220.514 341.5 212.5 275.5 228Z" fill="#adb891"/>
<path d="M67.5 437C200.511 478.174 255.611 378.5 379.5 378.5C396.038 378.5 418.347 386.488 426.939 396V695H-0.884155L-0.884125 427C8.26494 422.182 50.4432 431.72 67.5 437Z" fill="#889468"/>
</svg>
