<svg width="428" height="695" viewBox="0 0 428 695" fill="none" xmlns="http://www.w3.org/2000/svg">
<path opacity="0.4" d="M33.5 60.5C248.24 84.7872 255.695 0.499307 379.5 0.5C392.03 0.50007 428 7.49981 428 7.49981V695H0L3.43323e-05 62.8659C9.97023 59.9725 21.1019 59.0978 33.5 60.5Z" fill="#ADC178"/>
<path opacity="0.4" d="M276.369 228C210.347 243.5 185.214 167.272 52.5973 192C36.2179 195.054 -5.38993e-06 219 -5.38993e-06 219L2.5138e-05 695H428V219C416.974 220.515 342.392 212.501 276.369 228Z" fill="#708144"/>
<path opacity="0.4" d="M68.4125 437C201.478 478.174 256.602 378.5 380.542 378.5C397.087 378.5 419.405 386.488 428 396V695H0L3.05302e-05 427C9.15288 422.182 51.3487 431.72 68.4125 437Z" fill="#506029"/>
</svg>
