<svg width="428" height="695" viewBox="0 0 428 695" fill="none" xmlns="http://www.w3.org/2000/svg">
<path d="M34 60.5C248.74 84.7872 256.195 0.499307 380 0.5C392.529 0.50007 428.5 7.49981 428.5 7.49981V695H0.499939L0.499973 62.8659C10.4702 59.9725 21.6019 59.0978 34 60.5Z" fill="#ADC178"/>
<path d="M275.5 228C209.5 243.5 184.375 167.272 51.8036 192C35.4298 195.054 -0.775818 219 -0.775818 219L-0.775787 695H427.079V219C416.057 220.514 341.5 212.5 275.5 228Z" fill="#708144"/>
<path d="M67.5 437C200.511 478.174 255.611 378.5 379.5 378.5C396.038 378.5 418.347 386.488 426.939 396V695H-0.884155L-0.884125 427C8.26494 422.182 50.4432 431.72 67.5 437Z" fill="#506029"/>
<path d="M346.512 452.949C345.677 441.935 353.929 432.329 364.943 431.494L377.906 430.511C388.92 429.676 398.525 437.928 399.36 448.942L404.198 512.759L351.349 516.766L346.512 452.949Z" fill="#C6C6C6" fill-opacity="0.76"/>
<path d="M320.453 455.156L316.241 459.084L334.233 461.737L320.453 455.156Z" fill="white"/>
<rect width="56.1761" height="33" rx="16.5" transform="matrix(-0.989304 -0.145868 -0.145868 0.989304 323.592 437.93)" fill="white"/>
<path d="M399.227 109.573C399.982 98.553 391.66 89.0081 380.64 88.2537L367.67 87.3659C356.65 86.6115 347.105 94.9334 346.351 105.953L341.98 169.804L394.857 173.424L399.227 109.573Z" fill="#C6C6C6" fill-opacity="0.76"/>
<ellipse rx="39" ry="21" transform="matrix(-1 0 0 1 290 107)" fill="white"/>
<path d="M327 112.5L323.407 117L335.593 123L327 112.5Z" fill="white"/>
<path d="M23.528 302.994C23.7918 291.952 32.9573 283.214 43.9999 283.478L56.9961 283.788C68.0387 284.052 76.7767 293.217 76.5129 304.26L74.9849 368.241L22 366.976L23.528 302.994Z" fill="#C6C6C6" fill-opacity="0.76"/>
<ellipse cx="137.913" cy="301.627" rx="39" ry="21" transform="rotate(-3.93541 137.913 301.627)" fill="white"/>
<path d="M101.378 309.654L105.271 313.896L87.1276 315.145L101.378 309.654Z" fill="white"/>
</svg>
