<?xml version="1.0" encoding="UTF-8"?><svg id="Lag_2" xmlns="http://www.w3.org/2000/svg" viewBox="0 0 392 392"><defs><style>.cls-1{fill:#adc178;}.cls-2{fill:#34430f;}</style></defs><g id="Lag_1-2"><path class="cls-1" d="M196,392C87.92,392,0,304.08,0,196S87.92,0,196,0s196,87.92,196,196-87.92,196-196,196Zm0-362C104.47,30,30,104.47,30,196s74.47,166,166,166,166-74.47,166-166S287.53,30,196,30Z"/><path class="cls-2" d="M262.82,107.97l-66.82,66.82-66.82-66.82c-5.86-5.86-15.36-5.86-21.21,0-5.86,5.86-5.86,15.36,0,21.21l66.82,66.82-66.82,66.82c-5.86,5.86-5.86,15.36,0,21.21,5.86,5.86,15.36,5.86,21.21,0l66.82-66.82,66.82,66.82c5.86,5.86,15.36,5.86,21.21,0,5.86-5.86,5.86-15.36,0-21.21l-66.82-66.82,66.82-66.82c5.86-5.86,5.86-15.36,0-21.21-5.86-5.86-15.36-5.86-21.21,0Z"/></g></svg>