<?xml version="1.0" encoding="UTF-8"?><svg id="Lag_2" xmlns="http://www.w3.org/2000/svg" viewBox="0 0 504 504"><defs><style>.cls-1{fill:#fff;}.cls-2{fill:#8fa065;}.cls-3{fill:#f6f7f0;}.cls-4{fill:#b9ca8c;}.cls-5{fill:#c7d5a3;}.cls-6{fill:#a9bb7e;}.cls-7{fill:#d6e0bb;}</style></defs><g id="Lag_1-2"><g><path class="cls-1" d="M253.04,298c-1.87-2.21-3.61-4.79-5.05-7.25,.13-4.82,.02-16.75,.06-21.75,0-4.77,0-17.13,0-21.75,1.47-2.44,3.17-5.01,5-7.25,1.83,2.24,3.53,4.81,5,7.25,0,4.57,0,17.02,0,21.75,.02,5.06-.07,16.85,.05,21.75-1.44,2.46-3.18,5.04-5.05,7.25h0Z"/><path class="cls-6" d="M252.8,416c118.6,0,214.74-96.15,214.74-214.75,0-55.15-20.79-105.43-54.96-143.46C368.99,21.7,313.03,0,252,0S140.24,19.73,97.59,52.85c-36.87,38.56-59.52,90.83-59.52,148.4,0,118.6,96.14,214.75,214.74,214.75Zm-.8-391.5c78.39,0,141.94,67.94,141.94,151.75s-63.55,151.75-141.94,151.75S110.06,260.06,110.06,176.25,173.61,24.5,252,24.5Z"/><path class="cls-4" d="M252,328c78.39,0,141.94-67.94,141.94-151.75S330.39,24.5,252,24.5,110.06,92.44,110.06,176.25s63.55,151.75,141.94,151.75Zm-2.58-261.5c42.94,0,77.75,49.14,77.75,109.75s-34.81,109.75-77.75,109.75-77.75-49.14-77.75-109.75,34.81-109.75,77.75-109.75Z"/><path class="cls-5" d="M249.42,286c42.94,0,77.75-49.14,77.75-109.75s-34.81-109.75-77.75-109.75-77.75,49.14-77.75,109.75,34.81,109.75,77.75,109.75Zm1.97-142c22.27,0,40.32,27.98,40.32,62.5s-18.05,62.5-40.32,62.5-40.32-27.98-40.32-62.5,18.05-62.5,40.32-62.5Z"/><path class="cls-7" d="M251.39,269c22.27,0,40.32-27.98,40.32-62.5s-18.05-62.5-40.32-62.5-40.32,27.98-40.32,62.5,18.05,62.5,40.32,62.5Zm.65-79c11.05,0,20,13.88,20,31s-8.95,31-20,31-20-13.88-20-31,8.95-31,20-31Z"/><ellipse class="cls-3" cx="252.04" cy="221" rx="20" ry="31"/><g><path class="cls-2" d="M209.79,411.69c-97.99-19.92-171.73-106.57-171.73-210.44,0-57.57,22.65-109.84,59.52-148.4C38.21,98.96,0,171.01,0,252c0,125.12,91.19,228.92,210.73,248.62-.6-1.42-.93-2.98-.93-4.62v-84.31Z"/><path class="cls-2" d="M504,252c0-78.15-35.58-147.98-91.41-194.21,34.16,38.03,54.96,88.31,54.96,143.46,0,103.88-73.75,190.53-171.75,210.44v84.31c0,1.53-.3,2.99-.83,4.34,118.71-20.39,209.03-123.81,209.03-248.34Z"/></g><path class="cls-1" d="M283.79,278h-62c-6.6,0-12,5.4-12,12v206c0,1.63,.33,3.19,.93,4.62,13.43,2.21,27.22,3.38,41.27,3.38s29-1.26,42.97-3.66c.53-1.35,.83-2.81,.83-4.34v-206c0-6.6-5.4-12-12-12Z"/><path class="cls-1" d="M252.79,291c-1.65-1.64-3.25-3.62-4.54-5.5,.09-3.68,.03-12.69,.05-16.5,0-3.61,0-13,0-16.5,1.37-1.83,2.69-3.67,4.5-5.5,1.81,1.83,3.13,3.67,4.5,5.5,0,3.45,0,12.92,0,16.5,.01,3.85-.05,12.77,.04,16.5-1.3,1.88-2.89,3.86-4.54,5.5h0Z"/></g></g></svg>