<?xml version="1.0" encoding="UTF-8"?><svg id="Lag_2" xmlns="http://www.w3.org/2000/svg" viewBox="0 0 358.46 365.52"><defs><style>.cls-1{fill:#34430f;}</style></defs><g id="Lag_1-2"><path class="cls-1" d="M351.05,322.33l-60.37-60.37c-1.87-1.87-3.97-3.39-6.2-4.55,21.26-27.07,33.96-61.17,33.96-98.19C318.44,71.43,247.02,0,159.22,0S0,71.43,0,159.22s71.43,159.22,159.22,159.22c33.58,0,64.76-10.46,90.47-28.27,1.23,2.75,2.96,5.32,5.21,7.57l60.37,60.37c9.88,9.88,25.9,9.88,35.78,0h0c9.88-9.88,9.88-25.9,0-35.78ZM30,159.22C30,87.97,87.97,30,159.22,30s129.22,57.97,129.22,129.22-57.97,129.22-129.22,129.22S30,230.48,30,159.22Z"/></g></svg>