<?xml version="1.0" encoding="UTF-8"?><svg id="Lag_2" xmlns="http://www.w3.org/2000/svg" viewBox="0 0 362 362"><defs><style>.cls-1{fill:#adc178;}</style></defs><g id="Lag_1-2"><g><circle class="cls-1" cx="181.24" cy="181.24" r="61.28"/><g><path class="cls-1" d="M347.86,170.02c-7.81,0-14.14-6.33-14.14-14.14V85.32c0-31.45-25.59-57.03-57.03-57.03h-70.57c-7.81,0-14.14-6.33-14.14-14.14s6.33-14.14,14.14-14.14h70.57c47.04,0,85.32,38.27,85.32,85.32v70.57c0,7.81-6.33,14.14-14.14,14.14Z"/><path class="cls-1" d="M14.14,170.02c-7.81,0-14.14-6.33-14.14-14.14V85.32C0,38.27,38.27,0,85.32,0h70.57c7.81,0,14.14,6.33,14.14,14.14s-6.33,14.14-14.14,14.14H85.32c-31.45,0-57.03,25.59-57.03,57.03v70.57c0,7.81-6.33,14.14-14.14,14.14Z"/><path class="cls-1" d="M155.88,362H85.32C38.27,362,0,323.73,0,276.68v-70.57c0-7.81,6.33-14.14,14.14-14.14s14.14,6.33,14.14,14.14v70.57c0,31.45,25.59,57.03,57.03,57.03h70.57c7.81,0,14.14,6.33,14.14,14.14s-6.33,14.14-14.14,14.14Z"/></g><circle class="cls-1" cx="306.14" cy="302.37" r="41.95"/></g></g></svg>