<?xml version="1.0" encoding="UTF-8"?><svg id="Lag_2" xmlns="http://www.w3.org/2000/svg" viewBox="0 0 362 362"><defs><style>.cls-1{fill:#f2f2f2;}.cls-2{fill:#34430f;}</style></defs><g id="Lag_1-2"><circle class="cls-1" cx="181" cy="181" r="181"/><path class="cls-2" d="M286.83,57.77c-6.91-3.27-14.6-3.38-21.36-.55l-18.89,15.44,9.5,11.6-6.96,5.7-9.51-11.61-10.07,8.23,9.51,11.62-6.96,5.7-9.52-11.62-10.07,8.23,9.53,11.63-6.96,5.7-9.53-11.64-10.07,8.23,9.54,11.65-6.96,5.7-9.54-11.65-9.29,7.59,9.55,11.66-6.96,5.7-9.55-11.67-10.07,8.23,9.56,11.68-6.96,5.7-9.57-11.68-10.07,8.23,9.57,11.69-6.96,5.7-9.58-11.7-10.07,8.23,9.59,11.71-6.96,5.7-9.59-11.71-8.52,6.96,9.6,11.72-6.96,5.7-9.6-11.73-10.07,8.23,9.61,11.74-6.96,5.7-9.61-11.74-10.07,8.23,9.62,11.75-6.96,5.7-9.63-11.76-10.07,8.23,9.63,11.77-6.96,5.7-9.64-11.77-7.92,6.47c-8.68,7.15-11.84,18.61-8.05,29.2,3.79,10.59,13.5,17.44,24.74,17.47l211.59,.48c14.51,.03,26.35-11.74,26.4-26.25l.58-175.3c.03-10.32-5.74-19.47-15.06-23.89Zm-25.01,185.88l-161.77-.36L262.26,109.62l-.44,134.03Z"/></g></svg>