<?xml version="1.0" encoding="UTF-8"?><svg id="Lag_2" xmlns="http://www.w3.org/2000/svg" viewBox="0 0 362 362"><defs><style>.cls-1{fill:#f2f2f2;}.cls-2{fill:#34430f;}</style></defs><g id="Lag_1-2"><circle class="cls-1" cx="181" cy="181" r="181"/><path class="cls-2" d="M331.93,108.79l-44.42-53.54c-3.31-3.99-8-6.45-13.18-6.94-5.18-.48-10.24,1.08-14.23,4.39L45.39,232.21c-3.13,2.62-3.56,7.27-.95,10.41l44.96,54.19,.61-.41-.23-18.89c0-.6,.65-.98,1.17-.66l13.83,8.57c.51,.31,1.15,.3,1.65-.03l.08-.05c.21-.14,.34-.39,.34-.64l-.23-18.63c0-.6,.65-.98,1.17-.66l14.36,8.91c.26,.16,.58,.15,.83-.01l.09-.06c.43-.29,.68-.77,.67-1.28l-.23-19.22c0-.6,.65-.98,1.17-.66l15.14,9.39c.26,.16,.58,.15,.83-.01h0c.21-.14,.34-.39,.34-.64l-.23-19.01c0-.6,.65-.98,1.17-.66l14.25,8.83c.51,.31,1.15,.3,1.65-.03h0c.21-.14,.34-.39,.34-.64l-.21-17.55c0-.6,.65-.98,1.17-.66l13.52,8.38c.26,.16,.58,.15,.83-.01l1.19-.8c.43-.29,.68-.77,.67-1.28l-.19-15.68c0-.6,.65-.98,1.17-.66l12.38,7.67c.26,.16,.58,.15,.83-.01l.15-.1c.43-.29,.68-.77,.67-1.28l-.2-16.38c0-.6,.65-.98,1.17-.66l12.51,7.76c.51,.31,1.15,.3,1.65-.03l1.37-.92c.21-.14,.34-.39,.34-.64l-.21-16.94c0-.6,.65-.98,1.17-.66l12.63,7.83c.51,.31,1.15,.3,1.65-.03l.85-.57c.21-.14,.34-.39,.34-.64l-.22-17.86c0-.6,.65-.98,1.17-.66l13.76,8.53c.26,.16,.58,.15,.83-.01l.68-.46c.43-.29,.68-.77,.67-1.28l-.22-18.45c0-.6,.65-.98,1.17-.66l14.54,9.02c.26,.16,.58,.15,.83-.01l.72-.48c.43-.29,.68-.77,.67-1.28l-.22-17.91c0-.6,.65-.98,1.17-.66l13.7,8.5c.51,.31,1.15,.3,1.65-.03l6.96-4.67c.15-.1,.32-.14,.5-.12,5.02,.51,10.24-.9,14.42-4.37l32.98-27.36h0c8.26-6.86,9.41-19.15,2.55-27.41Zm-51.37,32.31l-34.29-41.33c-2.04-2.45-1.7-6.09,.76-8.13l20.77-17.23c2.45-2.04,6.09-1.7,8.13,.76l34.29,41.33c2.04,2.45,1.7,6.09-.76,8.13l-20.77,17.23c-2.45,2.04-6.09,1.7-8.13-.76Z"/></g></svg>