<svg width="392" height="392" viewBox="0 0 392 392" fill="none" xmlns="http://www.w3.org/2000/svg">
<path d="M57.315 334.505C-19.105 258.085 -19.105 133.735 57.315 57.315C133.735 -19.105 258.085 -19.105 334.505 57.315C410.925 133.735 410.925 258.085 334.505 334.505C258.085 410.925 133.735 410.925 57.315 334.505V334.505ZM313.285 78.535C248.565 13.815 143.245 13.815 78.525 78.535C13.805 143.255 13.805 248.575 78.525 313.295C143.245 378.015 248.565 378.015 313.285 313.295C378.005 248.575 378.005 143.255 313.285 78.535V78.535Z" fill="#46512C"/>
<path d="M305.405 180.915H210.905V86.415C210.905 78.135 204.185 71.415 195.905 71.415C187.625 71.415 180.905 78.135 180.905 86.415V180.915H86.405C78.125 180.915 71.405 187.635 71.405 195.915C71.405 204.195 78.125 210.915 86.405 210.915H180.905V305.415C180.905 313.695 187.625 320.415 195.905 320.415C204.185 320.415 210.905 313.695 210.905 305.415V210.915H305.405C313.685 210.915 320.405 204.195 320.405 195.915C320.405 187.635 313.685 180.915 305.405 180.915Z" fill="#46512C"/>
</svg>
