<svg width="392" height="392" viewBox="0 0 392 392" fill="none" xmlns="http://www.w3.org/2000/svg">
<g clip-path="url(#clip0_233_1995)">
<path d="M196 0C87.75 0 0 87.75 0 196C0 304.25 87.75 392 196 392C304.25 392 392 304.25 392 196C392 87.75 304.25 0 196 0ZM305.5 211H211V305.5C211 313.78 204.28 320.5 196 320.5C187.72 320.5 181 313.78 181 305.5V211H86.5C78.22 211 71.5 204.28 71.5 196C71.5 187.72 78.22 181 86.5 181H181V86.5C181 78.22 187.72 71.5 196 71.5C204.28 71.5 211 78.22 211 86.5V181H305.5C313.78 181 320.5 187.72 320.5 196C320.5 204.28 313.78 211 305.5 211Z" fill="#46512C"/>
</g>
<defs>
<clipPath id="clip0_233_1995">
<rect width="392" height="392" fill="white"/>
</clipPath>
</defs>
</svg>
