<?xml version="1.0" encoding="UTF-8"?><svg id="Layer_2" xmlns="http://www.w3.org/2000/svg" viewBox="0 0 392 392"><defs><style>.cls-1{fill:#8b9769;}</style></defs><g id="Lag_1"><path class="cls-1" d="M196,0C87.75,0,0,87.75,0,196s87.75,196,196,196,196-87.75,196-196S304.25,0,196,0Zm119.25,83.23c-97.96,95.74-144.92,239.42-145.39,240.86-1.93,6-7.41,10.16-13.7,10.4-.19,0-.39,.01-.58,.01-6.07,0-11.57-3.67-13.88-9.32L73.35,158.04c-3.13-7.67,.54-16.43,8.21-19.56,7.67-3.13,16.43,.54,19.56,8.21l53.87,131.75c5.88-14.3,13.69-32.03,23.53-51.77,22.92-46.01,61.61-111.97,115.76-164.9,5.92-5.79,15.42-5.68,21.21,.24s5.68,15.42-.24,21.21Z"/></g></svg>