<?xml version="1.0" encoding="UTF-8"?><svg id="Lag_2" xmlns="http://www.w3.org/2000/svg" viewBox="0 0 392 392"><defs><style>.cls-1{fill:#46512c;}</style></defs><g id="Lag_1-2"><g><path class="cls-1" d="M196,392C87.92,392,0,304.08,0,196S87.92,0,196,0s196,87.92,196,196-87.92,196-196,196Zm0-362C104.47,30,30,104.47,30,196s74.47,166,166,166,166-74.47,166-166S287.53,30,196,30Z"/><path class="cls-1" d="M184.32,239.8c-4.41,0-8.08-3.4-8.42-7.8h0c-1.8-16.2,3.6-33.9,18.6-51.9,13.5-15.9,21-27.6,21-41.1,0-15.3-9.6-25.5-28.5-25.8-7.05,0-14.61,1.53-21.1,4.18-5.27,2.15-11.28-.34-13.31-5.67h0c-1.9-5,.36-10.65,5.22-12.88,9.78-4.48,22.53-7.24,34.58-7.24,34.5,0,50.1,21.3,50.1,44.1,0,20.4-11.4,35.1-25.8,52.2-13.2,15.6-18,28.8-17.1,44.1h0c.16,4.26-3.24,7.8-7.51,7.8h-7.77Zm-14.27,39.27c1.13-9.63,8.23-16.17,17.84-16.17,10.5,0,17.7,7.8,17.7,18.9,0,8.93-4.99,16.12-13.31,18.07-12.53,2.94-23.73-8.02-22.24-20.8Z"/></g></g></svg>