<?xml version="1.0" encoding="UTF-8"?><svg id="Lag_2" xmlns="http://www.w3.org/2000/svg" viewBox="0 0 362 362"><defs><style>.cls-1{fill:#46512c;}</style></defs><g id="Lag_1-2"><path class="cls-1" d="M181,0C81.04,0,0,81.04,0,181s81.04,181,181,181,181-81.04,181-181S280.96,0,181,0Zm-4.92,284.9c-12.53,2.94-23.73-8.02-22.24-20.8,1.13-9.63,8.23-16.17,17.84-16.17,10.5,0,17.7,7.8,17.7,18.9,0,8.93-4.99,16.12-13.31,18.07Zm24.41-111.98c-13.2,15.6-18,28.8-17.1,44.1,.16,4.26-3.24,7.8-7.51,7.8h-7.77c-4.41,0-8.08-3.4-8.42-7.8-1.8-16.2,3.6-33.9,18.6-51.9,13.5-15.9,21-27.6,21-41.1,0-15.3-9.6-25.5-28.5-25.8-7.05,0-14.61,1.53-21.1,4.18-5.27,2.15-11.28-.34-13.31-5.67h0c-1.9-5,.36-10.65,5.22-12.88,9.78-4.48,22.53-7.24,34.58-7.24,34.5,0,50.1,21.3,50.1,44.1,0,20.4-11.4,35.1-25.8,52.2Z"/></g></svg>