<?xml version="1.0" encoding="UTF-8"?><svg id="Lag_2" xmlns="http://www.w3.org/2000/svg" viewBox="0 0 362 362"><defs><style>.cls-1{fill:#f2f2f2;}.cls-2{fill:#34430f;}</style></defs><g id="Lag_1-2"><circle class="cls-1" cx="181" cy="181" r="181"/><g><path class="cls-2" d="M115.5,301.58l18.39-13.63c4.27-3.16,3.9-9.67-.71-12.32l-15.78-9.11c-4.6-2.66-10.42,.27-11.03,5.55l-2.61,22.75c-.74,6.42,6.54,10.62,11.73,6.77Z"/><path class="cls-2" d="M190.89,205.46c-3.3,5.72-1.32,13.09,4.39,16.39l3.46,2c5.72,3.3,13.09,1.32,16.39-4.39L310.41,54.44c-6.72-6.71-13.97-12.88-21.66-18.48l-97.86,169.49Z"/><path class="cls-2" d="M162.38,202.85l3.46,2c5.72,3.3,13.09,1.32,16.39-4.39L280.48,30.29c-7.82-5.05-16.06-9.5-24.65-13.31l-97.85,169.47c-3.3,5.72-1.32,13.09,4.39,16.39Z"/><path class="cls-2" d="M129.47,183.85l3.46,2c5.72,3.3,13.09,1.32,16.39-4.39L246.5,13.15c-8.92-3.37-18.18-6.07-27.71-8.01L125.08,167.46c-3.3,5.72-1.32,13.09,4.39,16.39Z"/></g></g></svg>