<svg viewBox="0 0 339 362" fill="none" xmlns="http://www.w3.org/2000/svg">
<g clip-path="url(#clip0_149_913)">
<path d="M327.84 118.71L279.01 79.84C279.63 77.79 279.97 75.62 279.97 73.38V35.7C279.97 23.27 269.8 13.1 257.37 13.1H238.53C228 13.1 219.12 20.41 216.64 30.2L186.19 5.97001C176.2 -1.97999 162.04 -1.97999 152.05 5.97001L10.39 118.71C-7.25001 132.75 -0.920015 159.28 18.07 165.98V337.13C18.07 350.81 29.26 362 42.94 362H104.24C117.92 362 129.11 350.81 129.11 337.13V249.81C129.11 237.04 139.47 226.68 152.24 226.68H183.27C196.15 226.68 206.59 237.12 206.59 250V337.13C206.59 350.81 217.78 362 231.46 362H292.76C306.44 362 317.63 350.81 317.63 337.13V166.75C338.57 161.62 346.26 133.36 327.85 118.71H327.84Z" fill="#46512C"/>
</g>
<defs>
<clipPath id="clip0_149_913">
<rect width="338.23" height="362" fill="white"/>
</clipPath>
</defs>
</svg>
