<?xml version="1.0" encoding="UTF-8"?><svg id="Lag_2" xmlns="http://www.w3.org/2000/svg" viewBox="0 0 362 362"><defs><style>.cls-1{fill:#46512c;}</style></defs><g id="Lag_1-2"><path class="cls-1" d="M181,0C81.04,0,0,81.04,0,181s81.04,181,181,181,181-81.04,181-181S280.96,0,181,0Zm129.43,192.27H80.85l96.73,81.43c3.98,3.35,5.17,10.33,2.63,15.58-1.63,3.37-4.4,5.22-7.22,5.22-1.57,0-3.15-.57-4.58-1.76L46.98,190.51c-2.45-2.07-3.95-5.66-3.95-9.52s1.5-7.45,3.95-9.52l121.43-102.23c3.95-3.3,9.27-1.78,11.8,3.46,2.53,5.24,1.35,12.23-2.63,15.58l-96.73,81.43h229.58c4.71,0,8.53,5.05,8.53,11.28s-3.82,11.28-8.53,11.28Z"/></g></svg>