<?xml version="1.0" encoding="UTF-8"?><svg id="Layer_2" xmlns="http://www.w3.org/2000/svg" viewBox="0 0 451 451"><defs><style>.cls-1{fill:#46512c;}</style></defs><g id="Lag_1"><path class="cls-1" d="M350.43,0H100.57C45.26,0,0,45.26,0,100.57v249.85c0,55.32,45.26,100.57,100.57,100.57h249.85c55.32,0,100.57-45.26,100.57-100.57V100.57C451,45.26,405.74,0,350.43,0ZM44.5,129.81c0-47.04,38.27-85.31,85.32-85.31h70.56c7.81,0,14.14,6.33,14.14,14.14s-6.33,14.14-14.14,14.14h-70.56c-31.45,0-57.03,25.59-57.03,57.03v70.56c0,7.81-6.33,14.14-14.14,14.14s-14.14-6.33-14.14-14.14v-70.56ZM200.38,406.5h-70.56c-47.04,0-85.32-38.27-85.32-85.31v-70.56c0-7.81,6.33-14.14,14.14-14.14s14.14,6.33,14.14,14.14v70.56c0,31.45,25.59,57.03,57.03,57.03h70.56c7.81,0,14.14,6.33,14.14,14.14s-6.33,14.14-14.14,14.14Zm25.36-119.49c-33.84,0-61.28-27.43-61.28-61.28s27.43-61.28,61.28-61.28,61.28,27.43,61.28,61.28-27.43,61.28-61.28,61.28Zm124.91,101.81c-23.17,0-41.95-18.78-41.95-41.95s18.78-41.95,41.95-41.95,41.95,18.78,41.95,41.95-18.78,41.95-41.95,41.95Zm55.86-188.44c0,7.81-6.33,14.14-14.14,14.14s-14.14-6.33-14.14-14.14v-70.56c0-31.45-25.59-57.03-57.03-57.03h-70.56c-7.81,0-14.14-6.33-14.14-14.14s6.33-14.14,14.14-14.14h70.56c47.04,0,85.32,38.27,85.32,85.31v70.56Z"/></g></svg>