<svg width="18" height="20" viewBox="0 0 18 20" fill="none" xmlns="http://www.w3.org/2000/svg">
<path d="M8.61536 0.347794C8.72579 -0.0391766 9.27421 -0.0391755 9.38464 0.347795L10.9945 5.98891C11.0538 6.19649 11.267 6.31962 11.4764 6.26713L17.1667 4.84079C17.5571 4.74294 17.8313 5.21788 17.5514 5.50701L13.471 9.72178C13.3208 9.87687 13.3208 10.1231 13.471 10.2782L17.5514 14.493C17.8313 14.7821 17.5571 15.2571 17.1667 15.1592L11.4764 13.7329C11.267 13.6804 11.0538 13.8035 10.9945 14.0111L9.38464 19.6522C9.27421 20.0392 8.72579 20.0392 8.61536 19.6522L7.00546 14.0111C6.94622 13.8035 6.73295 13.6804 6.52356 13.7329L0.833266 15.1592C0.442921 15.2571 0.168716 14.7821 0.448624 14.493L4.52902 10.2782C4.67917 10.1231 4.67917 9.87687 4.52902 9.72178L0.448623 5.50701C0.168715 5.21788 0.442922 4.74294 0.833267 4.84079L6.52356 6.26713C6.73295 6.31962 6.94622 6.19649 7.00546 5.98891L8.61536 0.347794Z" fill="black"/>
</svg>
